<svg id="Placement" xmlns="http://www.w3.org/2000/svg" width="192" height="128" viewBox="0 0 192 128"><defs><style>.cls-1{fill:#000;}</style></defs><title>Pan_Placement_Double</title><path class="cls-1"  d="M168.08,253.55v24.12H107.21V253.55h60.87m1-1H106.21v26.12h62.87V252.55h0Z" transform="translate(-83.67 -150.67)"/><path class="cls-1" d="M253.35,253.55v24.12H192.48V253.55h60.87m1-1H191.48v26.12h62.87V252.55h0Z" transform="translate(-83.67 -150.67)"/><path class="cls-1" d="M168.08,151.67v24.12H107.21V151.67h60.87m1-1H106.21v26.12h62.87V150.67h0Z" transform="translate(-83.67 -150.67)"/><path class="cls-1" d="M253.35,151.67v24.12H192.48V151.67h60.87m1-1H191.48v26.12h62.87V150.67h0Z" transform="translate(-83.67 -150.67)"/><path class="cls-1" d="M274.67,151.67v126h-190v-126h190m1-1h-192v128h192v-128h0Z" transform="translate(-83.67 -150.67)"/></svg>

