<svg id="Inspection" xmlns="http://www.w3.org/2000/svg" viewBox="0 0 28.92 19.28"><defs><style>.cls-1{fill:#fff;}</style></defs><title>Pan_Board</title><g id="Black_copy" data-name="Black copy"><g id="Machine"><path d="M570.48,84.91a1,1,0,1,1-1-1,1,1,0,0,1,1,1m0-13.05a1,1,0,1,1-1-1,1,1,0,0,1,1,1m-20.69,0a1,1,0,1,1-1-1,1,1,0,0,1,1,1m24.13-3.19H545V87.95h28.92V68.67Z" transform="translate(-545 -68.67)"/><rect class="cls-1" width="28.92" height="19.28"/><rect class="cls-1" width="28.92" height="19.28"/></g></g></svg>