<svg id="Convayor" xmlns="http://www.w3.org/2000/svg" width="64" height="128" viewBox="0 0 64 128"><defs><style>.cls-1{fill:#3196ca;}.cls-2,.cls-3{fill:none;stroke:#3196ca;stroke-miterlimit:10;}.cls-2{stroke-width:2px;}.cls-3{stroke-linecap:round;stroke-width:0.75px;}</style></defs><title>Pan_Support</title><g id="Black"><path class="cls-1" d="M63,47V84H40.18V47H63m1-1H39.18V85H64V46Z"/><path class="cls-1" d="M63,65V84.1H40.18V65H63m1-1H39.18V85.1H64V64Z"/><path class="cls-1" d="M16.35,59.22V84H1V59.22H16.35m1-1H0V85H17.35V58.22Z"/><path class="cls-2" d="M51.93,84.66s.75,10.73-14.25,10.73c-16.25,0-6.17-9.4-10.75-16.83-3.08-5-10.25-2.09-10.25-2.09"/><line class="cls-3" x1="61.52" y1="48.19" x2="61.52" y2="62.57"/><line class="cls-3" x1="59.52" y1="48.19" x2="59.52" y2="62.57"/><line class="cls-3" x1="57.52" y1="48.19" x2="57.52" y2="62.57"/><line class="cls-3" x1="55.52" y1="48.19" x2="55.52" y2="62.57"/><line class="cls-3" x1="53.52" y1="48.19" x2="53.52" y2="62.57"/><line class="cls-3" x1="51.52" y1="48.19" x2="51.52" y2="62.57"/><line class="cls-3" x1="49.52" y1="48.19" x2="49.52" y2="62.57"/><line class="cls-3" x1="47.52" y1="48.19" x2="47.52" y2="62.57"/><line class="cls-3" x1="45.52" y1="48.19" x2="45.52" y2="62.57"/><line class="cls-3" x1="43.52" y1="48.19" x2="43.52" y2="62.57"/><line class="cls-3" x1="41.52" y1="48.19" x2="41.52" y2="62.57"/></g></svg>
